<svg width="256" height="256" viewBox="0 0 256 256" fill="none" xmlns="http://www.w3.org/2000/svg">
<g clip-path="url(#clip0_78_35)">
<rect width="256" height="256" rx="29.0909" fill="#3B82F6"/>
<path d="M23.0985 96.3029C13.345 90.2228 17.3737 75.1873 28.8606 74.7985L57.4433 73.8309C64.2415 73.6008 69.3938 67.6137 68.6081 60.8572L65.3048 32.4495C63.9773 21.033 78.2444 14.8083 85.7103 23.5467L104.288 45.2903C108.706 50.4618 116.6 50.7572 121.392 45.9303L141.543 25.6358C149.641 17.4798 163.403 24.7532 161.226 36.0386L156.086 62.6819C154.702 69.8602 160.201 76.5223 167.512 76.5223L224.426 76.5223C237.556 76.5223 240.634 94.8754 228.222 99.1585L177.959 116.503C170.261 119.16 167.603 128.698 172.817 134.954L213.356 183.589C221.932 193.879 209.19 208.129 198.009 200.752L145.3 165.976C138.672 161.603 129.707 165.007 127.652 172.677L112.504 229.208C109.083 241.978 90.399 240.058 89.647 226.858L86.4555 170.839C86.0144 163.096 78.2662 157.943 70.9556 160.531L46.7059 169.113C35.871 172.948 26.6277 160.424 33.4856 151.2L50.5502 128.25C54.6089 122.792 53.1404 115.031 47.3681 111.432L23.0985 96.3029Z" fill="white"/>
</g>
<defs>
<clipPath id="clip0_78_35">
<rect width="256" height="256" rx="29.0909" fill="white"/>
</clipPath>
</defs>
</svg>
